# xmcd
#
# Track frame offsets: 
#        150
#        18138
#        34318
#        52198
#        75928
#        99478
#        119876
#        141502
#
# Disc length: 2077 seconds
#
# Revision: 0
# Processed by: cddbd v1.5.2PL0 Copyright (c) Steve Scherf et al.
# Submitted via: ExactAudioCopyFreeDBPlugin 1.0
#
DISCID=6b081b08
DTITLE=Carlene Carter - Carlene Carter-Nashville April 8, 2014
DYEAR=2014
DGENRE=Crossover
TTITLE0=Tall Lover Man
TTITLE1=Black Jack David
TTITLE2=Troublesome Waters
TTITLE3=World of Miracles
TTITLE4=Blackie's Gunman- w Elizabeth Cook and Sam Bush
TTITLE5=It Takes One to Know Me
TTITLE6=Change
TTITLE7=Every Little Thing
EXTD=
EXTT0=
EXTT1=
EXTT2=
EXTT3=
EXTT4=
EXTT5=
EXTT6=
EXTT7=
PLAYORDER=
